<?xml version="1.0" encoding="utf-8"?>
<!-- Generator: Adobe Illustrator 24.0.0, SVG Export Plug-In . SVG Version: 6.00 Build 0)  -->
<svg version="1.1" xmlns="http://www.w3.org/2000/svg" xmlns:xlink="http://www.w3.org/1999/xlink" x="0px" y="0px"
	 viewBox="0 0 25 24.7" style="enable-background:new 0 0 25 24.7;" xml:space="preserve">
<style type="text/css">
	.st0{opacity:0.8;}
	.st1{fill:#FFFFFF;}
	.st2{display:none;}
	.st3{display:inline;opacity:0.8;}
	.st4{display:inline;opacity:0.8;fill:#FFFFFF;}
</style>
<g id="Layer_1">
	<title>Solid_Justify</title>
	<g class="st0">
		<path class="st1" d="M12.6,8.3c-2.3,0-4.2,1.9-4.2,4.2s1.9,4.2,4.2,4.2s4.2-1.9,4.2-4.2c0,0,0,0,0,0C16.8,10.2,14.9,8.3,12.6,8.3z
			"/>
		<path class="st1" d="M18.5,2H6.7C4.1,2,2.1,4.1,2.1,6.6v11.8c0,2.5,2.1,4.6,4.6,4.6h11.8c2.5,0,4.6-2.1,4.6-4.6V6.6
			C23.1,4.1,21,2,18.5,2z M18.5,7.5c-0.6,0-1-0.4-1-1s0.4-1,1-1s1,0.4,1,1S19.1,7.5,18.5,7.5z M12.6,17.7c-2.9,0-5.2-2.3-5.2-5.2
			c0-2.9,2.3-5.2,5.2-5.2c2.9,0,5.2,2.3,5.2,5.2v0C17.8,15.4,15.5,17.7,12.6,17.7z"/>
	</g>
</g>
<g id="Layer_2" class="st2">
	<g class="st3">
		<path class="st1" d="M22.1,9.2h-5.4c0,0,0,0,0.2-1s0.3-2.9,0.1-4.2c-0.3-1.3-1.5-1.6-1.9-1.9C14.7,1.8,14,2.6,14,2.6
			s0,0.3,0.1,2.3s-4.3,6.2-4.3,6.2l-0.1,0.1c0,0-0.1,7.4,0,7.9c0.2,0.5,1.5,0.9,1.5,0.9h9.4c0,0,1-0.4,1.4-1
			c0.5-0.7,0.2-1.5,0.2-1.5s0.5-0.3,0.8-0.9c0.3-0.5,0-1.7,0-1.7s0.5-0.4,0.7-0.9c0.1-0.5-0.2-1.4-0.2-1.4s0.3-0.4,0.5-1.5
			C24.1,9.8,22.1,9.2,22.1,9.2z"/>
		<path class="st1" d="M7,10.5H2c-0.5,0-1,0.4-1,1v8.2c0,0.5,0.4,1,1,1H7c0.5,0,1-0.5,1-1v-8.3C8,10.9,7.5,10.5,7,10.5z M6.3,18.8
			c-0.4,0-0.8-0.3-0.8-0.8c0-0.4,0.3-0.8,0.8-0.8c0.4,0,0.8,0.3,0.8,0.8C7.1,18.4,6.8,18.8,6.3,18.8z"/>
	</g>
</g>
<g id="Layer_3" class="st2">
	<path class="st4" d="M19.4,5.1H5.6C3.6,5.1,2,6.7,2,8.7v7.4c0,2,1.6,3.6,3.6,3.6h13.9c2,0,3.6-1.6,3.6-3.6V8.7
		C23,6.7,21.4,5.1,19.4,5.1z M16.6,12.5l-6.3,3.2c-0.1,0-0.2,0-0.2-0.1c0,0,0,0,0-0.1V9.1C10.1,9,10.2,9,10.2,9c0,0,0.1,0,0.1,0
		l6.3,3.2C16.7,12.3,16.7,12.4,16.6,12.5C16.7,12.5,16.6,12.5,16.6,12.5L16.6,12.5z"/>
</g>
<g id="Layer_4" class="st2">
	<g class="st3">
		<g>
			<path class="st1" d="M12.5,2.1C6.7,2.1,2.1,6.8,2.1,12.5c0,5.7,4.7,10.4,10.4,10.4c5.7,0,10.4-4.7,10.4-10.4
				C22.9,6.8,18.2,2.1,12.5,2.1z M17.3,17.1c-0.2,0.3-0.6,0.4-0.9,0.2c-2.4-1.5-5.5-1.8-9.1-1c-0.3,0.1-0.7-0.1-0.8-0.5
				c-0.1-0.3,0.1-0.7,0.5-0.8c4-0.9,7.4-0.5,10.1,1.2C17.3,16.4,17.4,16.8,17.3,17.1z M18.5,14.3c-0.2,0.4-0.7,0.5-1.1,0.3
				c-2.8-1.7-7.1-2.2-10.4-1.2c-0.4,0.1-0.9-0.1-1-0.5c-0.1-0.4,0.1-0.9,0.5-1c3.8-1.1,8.5-0.6,11.7,1.4
				C18.6,13.4,18.8,13.9,18.5,14.3z M18.6,11.3c-3.4-2-8.9-2.2-12.1-1.2C6,10.3,5.5,10,5.3,9.5C5.2,9,5.5,8.4,6,8.3
				c3.7-1.1,9.8-0.9,13.6,1.4c0.5,0.3,0.6,0.9,0.3,1.3C19.7,11.4,19.1,11.6,18.6,11.3z"/>
		</g>
	</g>
</g>
</svg>
